<svg xmlns="http://www.w3.org/2000/svg" xmlns:xlink="http://www.w3.org/1999/xlink" width="180" zoomAndPan="magnify" viewBox="0 0 135 135.000003" height="180" preserveAspectRatio="xMidYMid meet" version="1.0"><defs><clipPath id="bc46be1f11"><path d="M 25.382812 21.195312 L 109.511719 21.195312 L 109.511719 112.765625 L 25.382812 112.765625 Z M 25.382812 21.195312 " clip-rule="nonzero"/></clipPath></defs><g clip-path="url(#bc46be1f11)"><path fill="#ffffff" d="M 109.609375 104.539062 L 109.609375 103.613281 C 109.609375 97.929688 108.496094 92.417969 106.300781 87.222656 C 104.179688 82.207031 101.144531 77.703125 97.277344 73.835938 C 93.410156 69.972656 88.910156 66.9375 83.894531 64.816406 C 83.5625 64.675781 83.230469 64.542969 82.898438 64.410156 C 83.527344 63.894531 84.136719 63.34375 84.71875 62.761719 C 86.953125 60.527344 88.707031 57.925781 89.933594 55.023438 C 91.207031 52.019531 91.851562 48.828125 91.851562 45.542969 C 91.851562 42.257812 91.207031 39.070312 89.933594 36.066406 C 88.707031 33.164062 86.953125 30.5625 84.71875 28.328125 C 82.484375 26.089844 79.878906 24.335938 76.980469 23.109375 C 73.976562 21.839844 70.785156 21.195312 67.5 21.195312 C 64.214844 21.195312 61.027344 21.839844 58.019531 23.109375 C 55.121094 24.335938 52.515625 26.089844 50.28125 28.328125 C 48.046875 30.5625 46.292969 33.164062 45.066406 36.066406 C 43.792969 39.070312 43.148438 42.257812 43.148438 45.542969 C 43.148438 48.828125 43.792969 52.019531 45.066406 55.023438 C 46.292969 57.925781 48.046875 60.527344 50.28125 62.761719 C 50.863281 63.34375 51.472656 63.894531 52.101562 64.410156 C 51.769531 64.542969 51.4375 64.675781 51.109375 64.816406 C 46.09375 66.9375 41.589844 69.972656 37.722656 73.835938 C 33.859375 77.703125 30.824219 82.207031 28.703125 87.222656 C 26.503906 92.417969 25.390625 97.929688 25.390625 103.613281 L 25.390625 104.539062 C 25.390625 108.863281 28.707031 112.421875 32.929688 112.8125 L 102.644531 112.738281 L 102.667969 112.738281 C 103.394531 112.664062 104.097656 112.449219 104.742188 112.101562 C 107.609375 110.792969 109.609375 107.894531 109.609375 104.539062 Z M 49.554688 53.125 C 48.539062 50.726562 48.023438 48.175781 48.023438 45.542969 C 48.023438 42.914062 48.539062 40.363281 49.554688 37.960938 C 50.535156 35.644531 51.9375 33.558594 53.726562 31.773438 C 55.515625 29.984375 57.597656 28.578125 59.917969 27.597656 C 62.320312 26.582031 64.871094 26.066406 67.5 26.066406 C 70.128906 26.066406 72.679688 26.582031 75.082031 27.597656 C 77.402344 28.578125 79.484375 29.984375 81.273438 31.773438 C 83.0625 33.558594 84.464844 35.644531 85.449219 37.964844 C 86.464844 40.363281 86.976562 42.914062 86.976562 45.542969 C 86.976562 48.175781 86.464844 50.726562 85.449219 53.125 C 84.464844 55.445312 83.0625 57.527344 81.273438 59.316406 C 79.484375 61.105469 77.402344 62.511719 75.082031 63.492188 C 72.679688 64.507812 70.128906 65.023438 67.5 65.023438 C 64.871094 65.023438 62.320312 64.507812 59.917969 63.492188 C 57.597656 62.511719 55.515625 61.105469 53.726562 59.316406 C 51.9375 57.527344 50.535156 55.445312 49.554688 53.125 Z M 104.738281 104.539062 C 104.738281 106.433594 103.195312 107.976562 101.300781 107.976562 L 33.699219 107.976562 C 31.804688 107.976562 30.261719 106.433594 30.261719 104.539062 L 30.261719 103.613281 C 30.261719 98.585938 31.246094 93.710938 33.1875 89.117188 C 35.0625 84.683594 37.75 80.703125 41.167969 77.28125 C 44.589844 73.863281 48.570312 71.179688 53.003906 69.300781 C 53.984375 68.890625 54.988281 68.515625 55.988281 68.1875 C 55.992188 68.1875 55.992188 68.1875 55.992188 68.1875 C 56.339844 68.074219 56.695312 67.964844 57.046875 67.859375 C 57.179688 67.824219 57.304688 67.773438 57.421875 67.714844 C 57.621094 67.804688 57.820312 67.894531 58.019531 67.980469 C 61.027344 69.25 64.214844 69.894531 67.5 69.894531 C 70.785156 69.894531 73.976562 69.25 76.980469 67.980469 C 77.179688 67.894531 77.378906 67.804688 77.578125 67.714844 C 77.695312 67.773438 77.820312 67.824219 77.953125 67.859375 C 79.316406 68.261719 80.675781 68.746094 81.996094 69.300781 C 86.429688 71.179688 90.410156 73.863281 93.832031 77.28125 C 97.25 80.703125 99.9375 84.683594 101.8125 89.117188 C 103.753906 93.710938 104.738281 98.585938 104.738281 103.613281 Z M 104.738281 104.539062 " fill-opacity="1" fill-rule="nonzero"/></g></svg>