<svg xmlns="http://www.w3.org/2000/svg" xmlns:xlink="http://www.w3.org/1999/xlink" width="180" zoomAndPan="magnify" viewBox="0 0 135 135.000003" height="180" preserveAspectRatio="xMidYMid meet" version="1.0"><defs><clipPath id="4d063eaac5"><path d="M 18.804688 18.308594 L 116.332031 18.308594 L 116.332031 93 L 18.804688 93 Z M 18.804688 18.308594 " clip-rule="nonzero"/></clipPath><clipPath id="d1bdbcd8e7"><path d="M 41 96 L 62 96 L 62 115.835938 L 41 115.835938 Z M 41 96 " clip-rule="nonzero"/></clipPath><clipPath id="79c6a1e485"><path d="M 80 96 L 100 96 L 100 115.835938 L 80 115.835938 Z M 80 96 " clip-rule="nonzero"/></clipPath></defs><g clip-path="url(#4d063eaac5)"><path fill="#ffffff" d="M 44.773438 79.984375 L 94.609375 79.984375 C 95.398438 79.988281 96.183594 79.925781 96.960938 79.796875 C 97.742188 79.664062 98.503906 79.46875 99.25 79.210938 C 99.996094 78.953125 100.714844 78.632812 101.40625 78.25 C 102.097656 77.871094 102.75 77.433594 103.371094 76.941406 C 103.988281 76.453125 104.558594 75.910156 105.085938 75.324219 C 105.613281 74.734375 106.085938 74.105469 106.503906 73.4375 C 106.925781 72.769531 107.285156 72.070312 107.589844 71.339844 C 107.890625 70.609375 108.128906 69.863281 108.304688 69.089844 L 116.109375 35.269531 C 116.164062 35.03125 116.191406 34.789062 116.191406 34.546875 C 116.195312 34.300781 116.167969 34.058594 116.113281 33.820312 C 116.058594 33.582031 115.980469 33.355469 115.875 33.132812 C 115.769531 32.914062 115.640625 32.707031 115.488281 32.515625 C 115.335938 32.324219 115.164062 32.152344 114.972656 32 C 114.78125 31.847656 114.574219 31.71875 114.355469 31.613281 C 114.136719 31.507812 113.90625 31.425781 113.667969 31.375 C 113.429688 31.320312 113.1875 31.292969 112.945312 31.292969 L 37.414062 31.292969 L 34.949219 20.808594 C 34.867188 20.453125 34.726562 20.121094 34.53125 19.8125 C 34.332031 19.503906 34.09375 19.234375 33.804688 19.007812 C 33.519531 18.78125 33.203125 18.605469 32.855469 18.488281 C 32.511719 18.367188 32.152344 18.308594 31.789062 18.308594 L 22.050781 18.308594 C 21.617188 18.308594 21.203125 18.390625 20.808594 18.554688 C 20.410156 18.71875 20.058594 18.953125 19.753906 19.257812 C 19.449219 19.5625 19.214844 19.914062 19.050781 20.3125 C 18.886719 20.707031 18.804688 21.121094 18.804688 21.554688 C 18.804688 21.984375 18.886719 22.398438 19.050781 22.796875 C 19.214844 23.191406 19.449219 23.542969 19.753906 23.847656 C 20.058594 24.152344 20.410156 24.386719 20.808594 24.550781 C 21.203125 24.71875 21.617188 24.800781 22.050781 24.800781 L 29.21875 24.800781 L 40.878906 74.324219 C 40.371094 74.546875 39.886719 74.8125 39.425781 75.121094 C 38.964844 75.425781 38.535156 75.769531 38.132812 76.148438 C 37.730469 76.527344 37.359375 76.9375 37.027344 77.382812 C 36.695312 77.824219 36.402344 78.292969 36.152344 78.785156 C 35.898438 79.277344 35.6875 79.785156 35.523438 80.3125 C 35.355469 80.84375 35.238281 81.378906 35.164062 81.929688 C 35.089844 82.476562 35.0625 83.027344 35.082031 83.582031 C 35.101562 84.132812 35.167969 84.683594 35.28125 85.222656 C 35.394531 85.765625 35.550781 86.292969 35.753906 86.808594 C 35.960938 87.324219 36.203125 87.816406 36.492188 88.289062 C 36.78125 88.761719 37.105469 89.207031 37.46875 89.625 C 37.832031 90.042969 38.226562 90.425781 38.65625 90.777344 C 39.085938 91.128906 39.539062 91.4375 40.023438 91.710938 C 40.503906 91.984375 41.003906 92.210938 41.527344 92.398438 C 42.046875 92.585938 42.582031 92.726562 43.125 92.824219 C 43.671875 92.917969 44.21875 92.96875 44.773438 92.972656 L 106.453125 92.972656 C 106.882812 92.972656 107.296875 92.886719 107.695312 92.722656 C 108.09375 92.558594 108.445312 92.324219 108.746094 92.019531 C 109.050781 91.714844 109.285156 91.363281 109.453125 90.96875 C 109.617188 90.570312 109.699219 90.15625 109.699219 89.726562 C 109.699219 89.292969 109.617188 88.878906 109.453125 88.484375 C 109.285156 88.085938 109.050781 87.734375 108.746094 87.429688 C 108.445312 87.125 108.09375 86.890625 107.695312 86.726562 C 107.296875 86.5625 106.882812 86.476562 106.453125 86.476562 L 44.773438 86.476562 C 44.34375 86.476562 43.929688 86.394531 43.53125 86.230469 C 43.132812 86.066406 42.78125 85.832031 42.476562 85.527344 C 42.171875 85.222656 41.9375 84.871094 41.773438 84.472656 C 41.609375 84.078125 41.527344 83.664062 41.527344 83.230469 C 41.527344 82.800781 41.609375 82.386719 41.773438 81.988281 C 41.9375 81.59375 42.171875 81.242188 42.476562 80.9375 C 42.78125 80.632812 43.132812 80.398438 43.53125 80.234375 C 43.929688 80.066406 44.34375 79.984375 44.773438 79.984375 Z M 108.863281 37.785156 L 101.976562 67.628906 C 101.785156 68.464844 101.464844 69.246094 101.011719 69.96875 C 100.554688 70.695312 99.992188 71.324219 99.324219 71.855469 C 98.652344 72.390625 97.914062 72.796875 97.105469 73.078125 C 96.296875 73.359375 95.464844 73.496094 94.609375 73.492188 L 47.34375 73.492188 L 38.929688 37.785156 Z M 108.863281 37.785156 " fill-opacity="1" fill-rule="nonzero"/></g><g clip-path="url(#d1bdbcd8e7)"><path fill="#ffffff" d="M 51.265625 96.21875 C 50.625 96.21875 49.992188 96.28125 49.367188 96.40625 C 48.738281 96.527344 48.128906 96.714844 47.539062 96.957031 C 46.949219 97.203125 46.386719 97.503906 45.855469 97.859375 C 45.324219 98.214844 44.832031 98.617188 44.378906 99.070312 C 43.925781 99.523438 43.523438 100.015625 43.167969 100.546875 C 42.8125 101.078125 42.511719 101.636719 42.269531 102.230469 C 42.023438 102.820312 41.839844 103.429688 41.714844 104.054688 C 41.589844 104.683594 41.527344 105.316406 41.527344 105.957031 C 41.527344 106.59375 41.589844 107.230469 41.714844 107.855469 C 41.839844 108.484375 42.023438 109.09375 42.269531 109.683594 C 42.511719 110.273438 42.8125 110.835938 43.167969 111.367188 C 43.523438 111.898438 43.925781 112.390625 44.378906 112.84375 C 44.832031 113.292969 45.324219 113.699219 45.855469 114.054688 C 46.386719 114.410156 46.949219 114.707031 47.539062 114.953125 C 48.128906 115.199219 48.738281 115.382812 49.367188 115.507812 C 49.992188 115.632812 50.625 115.695312 51.265625 115.695312 C 51.90625 115.695312 52.539062 115.632812 53.164062 115.507812 C 53.792969 115.382812 54.402344 115.199219 54.992188 114.953125 C 55.582031 114.707031 56.144531 114.410156 56.675781 114.054688 C 57.207031 113.699219 57.699219 113.292969 58.152344 112.84375 C 58.605469 112.390625 59.007812 111.898438 59.363281 111.367188 C 59.71875 110.835938 60.019531 110.273438 60.261719 109.683594 C 60.507812 109.09375 60.691406 108.484375 60.816406 107.855469 C 60.941406 107.230469 61.003906 106.59375 61.003906 105.957031 C 61.003906 105.316406 60.941406 104.683594 60.816406 104.054688 C 60.691406 103.429688 60.507812 102.820312 60.261719 102.230469 C 60.019531 101.636719 59.71875 101.078125 59.363281 100.546875 C 59.007812 100.015625 58.605469 99.523438 58.152344 99.070312 C 57.699219 98.617188 57.207031 98.214844 56.675781 97.859375 C 56.144531 97.503906 55.582031 97.203125 54.992188 96.957031 C 54.402344 96.714844 53.792969 96.527344 53.164062 96.40625 C 52.539062 96.28125 51.90625 96.21875 51.265625 96.21875 Z M 51.265625 109.203125 C 50.835938 109.203125 50.421875 109.121094 50.023438 108.957031 C 49.625 108.789062 49.273438 108.554688 48.96875 108.25 C 48.664062 107.945312 48.429688 107.597656 48.265625 107.199219 C 48.101562 106.800781 48.019531 106.386719 48.019531 105.957031 C 48.019531 105.527344 48.101562 105.113281 48.265625 104.714844 C 48.429688 104.316406 48.664062 103.964844 48.96875 103.660156 C 49.273438 103.355469 49.625 103.121094 50.023438 102.957031 C 50.421875 102.792969 50.835938 102.710938 51.265625 102.710938 C 51.695312 102.710938 52.109375 102.792969 52.507812 102.957031 C 52.90625 103.121094 53.257812 103.355469 53.5625 103.660156 C 53.867188 103.964844 54.101562 104.316406 54.265625 104.714844 C 54.429688 105.113281 54.511719 105.527344 54.511719 105.957031 C 54.511719 106.386719 54.429688 106.800781 54.265625 107.199219 C 54.101562 107.597656 53.867188 107.945312 53.5625 108.25 C 53.257812 108.554688 52.90625 108.789062 52.507812 108.957031 C 52.109375 109.121094 51.695312 109.203125 51.265625 109.203125 Z M 51.265625 109.203125 " fill-opacity="1" fill-rule="nonzero"/></g><g clip-path="url(#79c6a1e485)"><path fill="#ffffff" d="M 90.222656 96.21875 C 89.582031 96.21875 88.949219 96.28125 88.320312 96.40625 C 87.695312 96.527344 87.085938 96.714844 86.496094 96.957031 C 85.902344 97.203125 85.34375 97.503906 84.808594 97.859375 C 84.277344 98.214844 83.785156 98.617188 83.335938 99.070312 C 82.882812 99.523438 82.480469 100.015625 82.125 100.546875 C 81.769531 101.078125 81.46875 101.636719 81.222656 102.230469 C 80.980469 102.820312 80.792969 103.429688 80.667969 104.054688 C 80.542969 104.683594 80.480469 105.316406 80.480469 105.957031 C 80.480469 106.59375 80.542969 107.230469 80.667969 107.855469 C 80.792969 108.484375 80.980469 109.09375 81.222656 109.683594 C 81.46875 110.273438 81.769531 110.835938 82.125 111.367188 C 82.480469 111.898438 82.882812 112.390625 83.335938 112.84375 C 83.785156 113.292969 84.277344 113.699219 84.808594 114.054688 C 85.34375 114.410156 85.902344 114.707031 86.496094 114.953125 C 87.085938 115.199219 87.695312 115.382812 88.320312 115.507812 C 88.949219 115.632812 89.582031 115.695312 90.222656 115.695312 C 90.859375 115.695312 91.492188 115.632812 92.121094 115.507812 C 92.75 115.382812 93.355469 115.199219 93.949219 114.953125 C 94.539062 114.707031 95.101562 114.410156 95.632812 114.054688 C 96.164062 113.699219 96.65625 113.292969 97.105469 112.84375 C 97.558594 112.390625 97.964844 111.898438 98.320312 111.367188 C 98.671875 110.835938 98.972656 110.273438 99.21875 109.683594 C 99.464844 109.09375 99.648438 108.484375 99.773438 107.855469 C 99.898438 107.230469 99.960938 106.59375 99.960938 105.957031 C 99.960938 105.316406 99.898438 104.683594 99.773438 104.054688 C 99.648438 103.429688 99.464844 102.820312 99.21875 102.230469 C 98.972656 101.636719 98.671875 101.078125 98.320312 100.546875 C 97.964844 100.015625 97.558594 99.523438 97.105469 99.070312 C 96.65625 98.617188 96.164062 98.214844 95.632812 97.859375 C 95.101562 97.503906 94.539062 97.203125 93.949219 96.957031 C 93.355469 96.714844 92.75 96.527344 92.121094 96.40625 C 91.492188 96.28125 90.859375 96.21875 90.222656 96.21875 Z M 90.222656 109.203125 C 89.789062 109.203125 89.375 109.121094 88.980469 108.957031 C 88.582031 108.789062 88.230469 108.554688 87.925781 108.25 C 87.621094 107.945312 87.386719 107.597656 87.222656 107.199219 C 87.058594 106.800781 86.976562 106.386719 86.976562 105.957031 C 86.976562 105.527344 87.058594 105.113281 87.222656 104.714844 C 87.386719 104.316406 87.621094 103.964844 87.925781 103.660156 C 88.230469 103.355469 88.582031 103.121094 88.980469 102.957031 C 89.375 102.792969 89.789062 102.710938 90.222656 102.710938 C 90.652344 102.710938 91.066406 102.792969 91.464844 102.957031 C 91.859375 103.121094 92.210938 103.355469 92.515625 103.660156 C 92.820312 103.964844 93.054688 104.316406 93.21875 104.714844 C 93.386719 105.113281 93.46875 105.527344 93.46875 105.957031 C 93.46875 106.386719 93.386719 106.800781 93.21875 107.199219 C 93.054688 107.597656 92.820312 107.945312 92.515625 108.25 C 92.210938 108.554688 91.859375 108.789062 91.464844 108.957031 C 91.066406 109.121094 90.652344 109.203125 90.222656 109.203125 Z M 90.222656 109.203125 " fill-opacity="1" fill-rule="nonzero"/></g></svg>