<svg xmlns="http://www.w3.org/2000/svg" xmlns:xlink="http://www.w3.org/1999/xlink" width="180" zoomAndPan="magnify" viewBox="0 0 135 135.000003" height="180" preserveAspectRatio="xMidYMid meet" version="1.0"><defs><clipPath id="41e95cdf49"><path d="M 23.160156 24 L 109 24 L 109 112.585938 L 23.160156 112.585938 Z M 23.160156 24 " clip-rule="nonzero"/></clipPath></defs><g clip-path="url(#41e95cdf49)"><path fill="#ffffff" d="M 104.632812 102.554688 L 104.648438 102.554688 Z M 38.375 29 C 37.535156 29 36.742188 29.378906 35.882812 30.132812 C 35.789062 30.222656 34.554688 31.390625 33.753906 32.152344 L 33.054688 32.816406 C 28.96875 36.636719 27.113281 43.515625 28.332031 50.339844 C 28.726562 52.546875 29.359375 54.832031 30.214844 57.128906 C 34.535156 68.730469 42.738281 78.820312 48.855469 85.242188 C 54.949219 91.703125 64.585938 100.433594 75.9375 105.367188 C 78.1875 106.34375 80.433594 107.101562 82.613281 107.613281 C 89.367188 109.191406 96.335938 107.710938 100.367188 103.835938 L 101.039062 103.195312 C 101.820312 102.460938 103.039062 101.308594 103.214844 101.136719 C 105.726562 98.554688 104.46875 96.410156 99.433594 91.289062 L 98.175781 89.996094 C 94.984375 86.683594 89.632812 81.140625 85.109375 81.679688 C 83.878906 81.828125 82.59375 82.722656 81.234375 83.671875 C 79.886719 84.613281 78.492188 85.585938 76.820312 86.117188 C 72.328125 87.542969 67.773438 86.605469 63.988281 83.488281 C 61.726562 81.621094 59.421875 79.441406 57.332031 77.183594 C 55.21875 75.003906 53.164062 72.589844 51.425781 70.230469 C 48.515625 66.289062 47.824219 61.691406 49.484375 57.28125 C 50.105469 55.636719 51.152344 54.296875 52.164062 53 C 53.183594 51.695312 54.148438 50.460938 54.359375 49.238281 C 55.136719 44.738281 49.890625 39.109375 46.757812 35.746094 L 45.535156 34.417969 C 42.210938 30.785156 40.191406 29 38.375 29 Z M 88.0625 112.238281 C 85.804688 112.238281 83.636719 111.964844 81.703125 111.507812 C 79.289062 110.945312 76.8125 110.113281 74.339844 109.039062 C 62.363281 103.835938 52.292969 94.722656 45.949219 87.996094 C 39.578125 81.3125 31.019531 70.765625 26.464844 58.527344 C 25.523438 56.003906 24.824219 53.484375 24.390625 51.046875 C 23.234375 44.578125 24.183594 35.621094 30.320312 29.890625 L 30.996094 29.246094 C 31.851562 28.4375 33.179688 27.175781 33.234375 27.128906 C 39.367188 21.742188 44.859375 27.746094 48.488281 31.71875 L 49.6875 33.015625 C 53.328125 36.921875 59.421875 43.464844 58.304688 49.921875 C 57.921875 52.132812 56.539062 53.902344 55.320312 55.464844 C 54.453125 56.574219 53.636719 57.621094 53.234375 58.691406 C 52.050781 61.832031 52.539062 65 54.648438 67.855469 C 56.28125 70.066406 58.214844 72.339844 60.238281 74.425781 C 62.242188 76.589844 64.410156 78.640625 66.535156 80.398438 C 69.273438 82.65625 72.410156 83.308594 75.609375 82.300781 C 76.699219 81.953125 77.789062 81.195312 78.941406 80.386719 C 80.566406 79.253906 82.410156 77.96875 84.636719 77.703125 C 91.164062 76.933594 97.351562 83.371094 101.058594 87.214844 L 102.292969 88.480469 C 106.0625 92.316406 111.765625 98.121094 106.0625 103.953125 C 105.976562 104.039062 104.636719 105.308594 103.792969 106.105469 L 103.140625 106.722656 C 98.921875 110.78125 93.269531 112.238281 88.0625 112.238281 " fill-opacity="1" fill-rule="nonzero"/></g></svg>