<svg xmlns="http://www.w3.org/2000/svg" xmlns:xlink="http://www.w3.org/1999/xlink" width="180" zoomAndPan="magnify" viewBox="0 0 135 135.000003" height="180" preserveAspectRatio="xMidYMid meet" version="1.0"><defs><clipPath id="a54e7aa3ce"><path d="M 79 79 L 121.917969 79 L 121.917969 121.421875 L 79 121.421875 Z M 79 79 " clip-rule="nonzero"/></clipPath></defs><path fill="#000000" d="M 58.113281 99.523438 C 57.265625 99.523438 56.417969 99.5 55.570312 99.449219 C 54.722656 99.394531 53.878906 99.316406 53.035156 99.214844 C 52.195312 99.109375 51.355469 98.980469 50.519531 98.828125 C 49.6875 98.671875 48.859375 98.492188 48.035156 98.285156 C 47.210938 98.078125 46.394531 97.847656 45.585938 97.59375 C 44.777344 97.335938 43.976562 97.054688 43.183594 96.75 C 42.390625 96.445312 41.609375 96.117188 40.835938 95.761719 C 40.066406 95.410156 39.304688 95.035156 38.558594 94.632812 C 37.808594 94.234375 37.074219 93.8125 36.351562 93.367188 C 35.628906 92.921875 34.917969 92.453125 34.226562 91.964844 C 33.53125 91.476562 32.851562 90.96875 32.1875 90.4375 C 31.527344 89.90625 30.878906 89.359375 30.25 88.789062 C 29.621094 88.21875 29.011719 87.628906 28.417969 87.023438 C 27.824219 86.414062 27.253906 85.789062 26.699219 85.148438 C 26.144531 84.503906 25.609375 83.84375 25.09375 83.171875 C 24.582031 82.496094 24.085938 81.804688 23.617188 81.097656 C 23.144531 80.394531 22.695312 79.671875 22.265625 78.941406 C 21.839844 78.207031 21.433594 77.460938 21.054688 76.703125 C 20.671875 75.945312 20.3125 75.175781 19.980469 74.394531 C 19.644531 73.617188 19.335938 72.828125 19.046875 72.027344 C 18.761719 71.226562 18.5 70.421875 18.265625 69.605469 C 18.027344 68.789062 17.816406 67.96875 17.628906 67.140625 C 17.445312 66.3125 17.285156 65.480469 17.148438 64.640625 C 17.015625 63.804688 16.90625 62.960938 16.824219 62.117188 C 16.738281 61.273438 16.683594 60.425781 16.652344 59.578125 C 16.621094 58.730469 16.613281 57.882812 16.636719 57.035156 C 16.65625 56.183594 16.703125 55.335938 16.777344 54.492188 C 16.847656 53.644531 16.945312 52.804688 17.070312 51.964844 C 17.195312 51.125 17.347656 50.289062 17.523438 49.460938 C 17.699219 48.628906 17.898438 47.804688 18.125 46.988281 C 18.351562 46.167969 18.605469 45.359375 18.878906 44.554688 C 19.15625 43.753906 19.457031 42.960938 19.78125 42.175781 C 20.105469 41.390625 20.453125 40.617188 20.828125 39.855469 C 21.199219 39.09375 21.59375 38.34375 22.011719 37.605469 C 22.433594 36.867188 22.871094 36.140625 23.335938 35.429688 C 23.800781 34.71875 24.28125 34.019531 24.789062 33.339844 C 25.292969 32.65625 25.820312 31.992188 26.367188 31.34375 C 26.914062 30.695312 27.480469 30.0625 28.066406 29.449219 C 28.652344 28.832031 29.253906 28.238281 29.875 27.660156 C 30.5 27.082031 31.136719 26.523438 31.792969 25.984375 C 32.449219 25.449219 33.121094 24.929688 33.808594 24.433594 C 34.5 23.9375 35.199219 23.460938 35.917969 23.007812 C 36.636719 22.550781 37.367188 22.121094 38.109375 21.710938 C 38.851562 21.304688 39.609375 20.917969 40.375 20.554688 C 41.144531 20.191406 41.921875 19.851562 42.710938 19.539062 C 43.5 19.222656 44.296875 18.933594 45.101562 18.667969 C 45.90625 18.402344 46.71875 18.160156 47.542969 17.945312 C 48.363281 17.726562 49.1875 17.539062 50.023438 17.371094 C 50.855469 17.207031 51.691406 17.066406 52.53125 16.953125 C 53.375 16.839844 54.21875 16.75 55.0625 16.691406 C 55.910156 16.628906 56.757812 16.59375 57.605469 16.582031 C 58.453125 16.570312 59.304688 16.585938 60.152344 16.628906 C 61 16.671875 61.84375 16.738281 62.6875 16.835938 C 63.53125 16.929688 64.371094 17.046875 65.207031 17.191406 C 66.042969 17.339844 66.875 17.511719 67.699219 17.707031 C 68.527344 17.902344 69.34375 18.125 70.15625 18.371094 C 70.96875 18.617188 71.773438 18.890625 72.566406 19.1875 C 73.363281 19.484375 74.148438 19.804688 74.925781 20.148438 C 75.699219 20.492188 76.464844 20.859375 77.21875 21.25 C 77.972656 21.640625 78.710938 22.054688 79.441406 22.492188 C 80.167969 22.929688 80.882812 23.390625 81.582031 23.871094 C 82.28125 24.351562 82.964844 24.851562 83.632812 25.375 C 84.300781 25.898438 84.953125 26.441406 85.589844 27.003906 C 86.226562 27.566406 86.84375 28.148438 87.441406 28.746094 C 88.886719 30.1875 90.214844 31.726562 91.429688 33.367188 C 92.644531 35.003906 93.734375 36.722656 94.699219 38.519531 C 95.660156 40.316406 96.484375 42.175781 97.171875 44.097656 C 97.859375 46.019531 98.402344 47.976562 98.800781 49.976562 C 99.199219 51.980469 99.449219 53.996094 99.550781 56.035156 C 99.648438 58.070312 99.601562 60.105469 99.402344 62.136719 C 99.199219 64.164062 98.851562 66.167969 98.359375 68.148438 C 97.863281 70.125 97.222656 72.058594 96.441406 73.941406 C 95.664062 75.824219 94.746094 77.640625 93.699219 79.390625 C 92.648438 81.140625 91.476562 82.804688 90.183594 84.378906 C 88.890625 85.957031 87.484375 87.429688 85.972656 88.796875 C 84.460938 90.167969 82.859375 91.417969 81.160156 92.550781 C 79.464844 93.683594 77.695312 94.683594 75.851562 95.554688 C 74.007812 96.425781 72.109375 97.15625 70.15625 97.746094 C 68.203125 98.339844 66.21875 98.78125 64.199219 99.082031 C 62.183594 99.378906 60.15625 99.527344 58.113281 99.523438 Z M 58.113281 25.714844 C 57.496094 25.714844 56.878906 25.730469 56.261719 25.765625 C 55.644531 25.800781 55.027344 25.851562 54.414062 25.921875 C 53.800781 25.988281 53.1875 26.078125 52.578125 26.179688 C 51.96875 26.285156 51.363281 26.40625 50.761719 26.546875 C 50.160156 26.683594 49.5625 26.839844 48.96875 27.015625 C 48.375 27.1875 47.785156 27.378906 47.203125 27.585938 C 46.621094 27.792969 46.046875 28.015625 45.476562 28.257812 C 44.90625 28.496094 44.34375 28.753906 43.789062 29.023438 C 43.234375 29.296875 42.6875 29.585938 42.148438 29.890625 C 41.609375 30.191406 41.082031 30.511719 40.558594 30.847656 C 40.039062 31.179688 39.53125 31.527344 39.03125 31.890625 C 38.527344 32.253906 38.039062 32.632812 37.5625 33.023438 C 37.082031 33.414062 36.617188 33.820312 36.160156 34.238281 C 35.703125 34.65625 35.261719 35.085938 34.832031 35.53125 C 34.398438 35.972656 33.984375 36.429688 33.578125 36.894531 C 33.171875 37.363281 32.78125 37.84375 32.40625 38.332031 C 32.027344 38.820312 31.664062 39.320312 31.316406 39.832031 C 30.96875 40.34375 30.632812 40.863281 30.316406 41.394531 C 29.996094 41.921875 29.695312 42.460938 29.40625 43.007812 C 29.117188 43.554688 28.847656 44.109375 28.589844 44.671875 C 28.335938 45.234375 28.09375 45.804688 27.871094 46.382812 C 27.648438 46.957031 27.441406 47.539062 27.25 48.128906 C 27.0625 48.71875 26.886719 49.3125 26.730469 49.910156 C 26.574219 50.507812 26.4375 51.109375 26.316406 51.714844 C 26.195312 52.320312 26.089844 52.929688 26.003906 53.542969 C 25.917969 54.15625 25.847656 54.769531 25.796875 55.386719 C 25.746094 56 25.710938 56.617188 25.695312 57.234375 C 25.679688 57.855469 25.679688 58.472656 25.699219 59.089844 C 25.71875 59.707031 25.757812 60.324219 25.8125 60.941406 C 25.867188 61.554688 25.9375 62.171875 26.027344 62.78125 C 26.117188 63.394531 26.226562 64.003906 26.351562 64.609375 C 26.476562 65.214844 26.617188 65.8125 26.777344 66.410156 C 26.9375 67.007812 27.113281 67.601562 27.304688 68.1875 C 27.5 68.777344 27.710938 69.355469 27.9375 69.933594 C 28.164062 70.507812 28.40625 71.074219 28.664062 71.636719 C 28.921875 72.199219 29.199219 72.75 29.488281 73.296875 C 29.78125 73.84375 30.085938 74.378906 30.40625 74.90625 C 30.730469 75.433594 31.066406 75.953125 31.417969 76.460938 C 31.769531 76.972656 32.132812 77.46875 32.515625 77.957031 C 32.894531 78.445312 33.289062 78.921875 33.695312 79.386719 C 34.101562 79.851562 34.523438 80.304688 34.957031 80.746094 C 35.386719 81.1875 35.832031 81.617188 36.292969 82.03125 C 36.75 82.445312 37.21875 82.847656 37.699219 83.238281 C 38.179688 83.625 38.671875 84 39.171875 84.359375 C 39.675781 84.722656 40.1875 85.066406 40.710938 85.398438 C 41.230469 85.730469 41.761719 86.046875 42.304688 86.347656 C 42.84375 86.648438 43.390625 86.933594 43.949219 87.203125 C 44.503906 87.46875 45.070312 87.722656 45.640625 87.960938 C 46.210938 88.199219 46.789062 88.417969 47.371094 88.621094 C 47.957031 88.824219 48.542969 89.011719 49.136719 89.183594 C 49.734375 89.351562 50.332031 89.507812 50.933594 89.640625 C 51.539062 89.777344 52.144531 89.894531 52.753906 89.996094 C 53.363281 90.097656 53.976562 90.179688 54.589844 90.246094 C 55.207031 90.3125 55.820312 90.363281 56.4375 90.390625 C 57.058594 90.421875 57.675781 90.4375 58.292969 90.429688 C 58.910156 90.425781 59.527344 90.402344 60.144531 90.363281 C 60.761719 90.324219 61.378906 90.265625 61.992188 90.191406 C 62.605469 90.113281 63.214844 90.023438 63.824219 89.910156 C 64.433594 89.800781 65.035156 89.671875 65.636719 89.527344 C 66.238281 89.382812 66.835938 89.21875 67.425781 89.042969 C 68.019531 88.863281 68.605469 88.664062 69.183594 88.453125 C 69.765625 88.242188 70.339844 88.011719 70.90625 87.765625 C 71.472656 87.519531 72.035156 87.257812 72.585938 86.980469 C 73.136719 86.703125 73.683594 86.410156 74.21875 86.097656 C 74.753906 85.789062 75.277344 85.464844 75.796875 85.128906 C 76.3125 84.789062 76.820312 84.433594 77.316406 84.066406 C 77.8125 83.699219 78.296875 83.316406 78.773438 82.917969 C 79.246094 82.523438 79.710938 82.113281 80.160156 81.691406 C 80.613281 81.269531 81.050781 80.832031 81.476562 80.386719 C 81.902344 79.9375 82.316406 79.480469 82.71875 79.007812 C 83.117188 78.535156 83.503906 78.054688 83.875 77.558594 C 84.246094 77.066406 84.605469 76.5625 84.949219 76.046875 C 85.292969 75.535156 85.621094 75.011719 85.933594 74.476562 C 86.246094 73.945312 86.546875 73.402344 86.828125 72.851562 C 87.109375 72.304688 87.375 71.746094 87.628906 71.179688 C 87.878906 70.617188 88.113281 70.042969 88.328125 69.464844 C 88.546875 68.886719 88.746094 68.300781 88.933594 67.710938 C 89.117188 67.121094 89.28125 66.527344 89.433594 65.925781 C 89.582031 65.328125 89.714844 64.722656 89.832031 64.117188 C 89.945312 63.507812 90.042969 62.898438 90.125 62.285156 C 90.207031 61.671875 90.269531 61.058594 90.3125 60.441406 C 90.359375 59.824219 90.386719 59.207031 90.394531 58.589844 C 90.40625 57.972656 90.398438 57.351562 90.371094 56.734375 C 90.347656 56.117188 90.304688 55.5 90.242188 54.886719 C 90.183594 54.269531 90.101562 53.65625 90.007812 53.046875 C 89.910156 52.4375 89.796875 51.828125 89.667969 51.226562 C 89.535156 50.621094 89.386719 50.019531 89.222656 49.425781 C 89.058594 48.828125 88.875 48.238281 88.675781 47.652344 C 88.476562 47.070312 88.261719 46.488281 88.027344 45.917969 C 87.796875 45.34375 87.546875 44.777344 87.285156 44.21875 C 87.019531 43.660156 86.738281 43.109375 86.441406 42.566406 C 86.144531 42.023438 85.835938 41.492188 85.507812 40.964844 C 85.179688 40.441406 84.839844 39.925781 84.484375 39.421875 C 84.125 38.917969 83.753906 38.421875 83.371094 37.9375 C 82.984375 37.453125 82.589844 36.980469 82.175781 36.519531 C 81.765625 36.058594 81.339844 35.609375 80.902344 35.171875 C 79.40625 33.675781 77.777344 32.339844 76.019531 31.164062 C 74.261719 29.984375 72.402344 28.992188 70.449219 28.179688 C 68.492188 27.371094 66.476562 26.757812 64.402344 26.34375 C 62.328125 25.925781 60.230469 25.71875 58.113281 25.714844 Z M 58.113281 25.714844 " fill-opacity="1" fill-rule="nonzero"/><g clip-path="url(#a54e7aa3ce)"><path fill="#000000" d="M 116.90625 121.421875 C 115.648438 121.417969 114.578125 120.96875 113.691406 120.078125 L 80.992188 87.402344 C 80.78125 87.191406 80.59375 86.960938 80.425781 86.710938 C 80.261719 86.460938 80.121094 86.199219 80.003906 85.921875 C 79.890625 85.644531 79.804688 85.359375 79.746094 85.066406 C 79.6875 84.773438 79.65625 84.476562 79.65625 84.175781 C 79.65625 83.878906 79.6875 83.582031 79.746094 83.289062 C 79.804688 82.992188 79.890625 82.707031 80.003906 82.433594 C 80.121094 82.15625 80.261719 81.894531 80.425781 81.644531 C 80.59375 81.394531 80.78125 81.164062 80.992188 80.953125 C 81.203125 80.742188 81.433594 80.550781 81.683594 80.386719 C 81.933594 80.21875 82.195312 80.078125 82.472656 79.964844 C 82.75 79.851562 83.035156 79.761719 83.328125 79.703125 C 83.621094 79.644531 83.917969 79.617188 84.21875 79.617188 C 84.515625 79.617188 84.8125 79.644531 85.105469 79.703125 C 85.402344 79.761719 85.6875 79.851562 85.960938 79.964844 C 86.238281 80.078125 86.503906 80.21875 86.75 80.386719 C 87 80.550781 87.230469 80.742188 87.441406 80.953125 L 120.117188 113.652344 C 120.4375 113.972656 120.699219 114.328125 120.910156 114.726562 C 121.121094 115.121094 121.269531 115.539062 121.359375 115.980469 C 121.445312 116.421875 121.464844 116.867188 121.421875 117.3125 C 121.378906 117.761719 121.269531 118.191406 121.097656 118.605469 C 120.925781 119.023438 120.699219 119.402344 120.414062 119.75 C 120.128906 120.097656 119.800781 120.398438 119.429688 120.648438 C 119.054688 120.898438 118.652344 121.089844 118.222656 121.222656 C 117.792969 121.355469 117.355469 121.421875 116.90625 121.421875 Z M 116.90625 121.421875 " fill-opacity="1" fill-rule="nonzero"/></g></svg>